{
  "accessors": [
    {
      "bufferView": 2,
      "componentType": 5126,
      "count": 1046,
      "max": [
        145.75115966796875,
        95.58944702148438,
        220.00006103515625
      ],
      "min": [
        55.89883804321289,
        -104.41070556640625,
        19.99993133544922
      ],
      "type": "VEC3"
    },
    {
      "bufferView": 2,
      "byteOffset": 12552,
      "componentType": 5126,
      "count": 1046,
      "max": [
        1.0,
        1.0,
        1.0
      ],
      "min": [
        -1.0,
        -1.0,
        -1.0
      ],
      "type": "VEC3"
    },
    {
      "bufferView": 1,
      "componentType": 5126,
      "count": 1046,
      "max": [
        1.0,
        1.0
      ],
      "min": [
        1.0,
        1.0
      ],
      "type": "VEC2"
    },
    {
      "bufferView": 0,
      "componentType": 5125,
      "count": 1188,
      "type": "SCALAR"
    },
    {
      "bufferView": 2,
      "byteOffset": 25104,
      "componentType": 5126,
      "count": 711,
      "max": [
        115.75129699707031,
        115.58946990966797,
        210.0000762939453
      ],
      "min": [
        85.8988037109375,
        -64.41069793701172,
        39.999977111816406
      ],
      "type": "VEC3"
    },
    {
      "bufferView": 2,
      "byteOffset": 33636,
      "componentType": 5126,
      "count": 711,
      "max": [
        1.0,
        1.0,
        1.0
      ],
      "min": [
        -1.0,
        -1.0,
        -1.0
      ],
      "type": "VEC3"
    },
    {
      "bufferView": 1,
      "byteOffset": 8368,
      "componentType": 5126,
      "count": 711,
      "max": [
        1.0,
        1.0
      ],
      "min": [
        1.0,
        1.0
      ],
      "type": "VEC2"
    },
    {
      "bufferView": 0,
      "byteOffset": 4752,
      "componentType": 5125,
      "count": 768,
      "type": "SCALAR"
    },
    {
      "bufferView": 2,
      "byteOffset": 42168,
      "componentType": 5126,
      "count": 96,
      "max": [
        75.89883422851563,
        -24.410648345947266,
        130.0001220703125
      ],
      "min": [
        55.89876174926758,
        -84.4106674194336,
        80.00004577636719
      ],
      "type": "VEC3"
    },
    {
      "bufferView": 2,
      "byteOffset": 43320,
      "componentType": 5126,
      "count": 96,
      "max": [
        1.0,
        1.0,
        1.0
      ],
      "min": [
        -1.0,
        -1.0,
        -1.0
      ],
      "type": "VEC3"
    },
    {
      "bufferView": 1,
      "byteOffset": 14056,
      "componentType": 5126,
      "count": 96,
      "max": [
        1.0,
        1.0
      ],
      "min": [
        1.0,
        1.0
      ],
      "type": "VEC2"
    },
    {
      "bufferView": 0,
      "byteOffset": 7824,
      "componentType": 5125,
      "count": 108,
      "type": "SCALAR"
    },
    {
      "bufferView": 2,
      "byteOffset": 44472,
      "componentType": 5126,
      "count": 58,
      "max": [
        65.89884948730469,
        45.589332580566406,
        20.000057220458984
      ],
      "min": [
        55.898841857910156,
        5.589286804199219,
        0.0
      ],
      "type": "VEC3"
    },
    {
      "bufferView": 2,
      "byteOffset": 45168,
      "componentType": 5126,
      "count": 58,
      "max": [
        1.0,
        1.0,
        1.0
      ],
      "min": [
        -1.0,
        -1.0,
        -1.0
      ],
      "type": "VEC3"
    },
    {
      "bufferView": 1,
      "byteOffset": 14824,
      "componentType": 5126,
      "count": 58,
      "max": [
        1.0,
        1.0
      ],
      "min": [
        1.0,
        1.0
      ],
      "type": "VEC2"
    },
    {
      "bufferView": 0,
      "byteOffset": 8256,
      "componentType": 5125,
      "count": 60,
      "type": "SCALAR"
    },
    {
      "bufferView": 2,
      "byteOffset": 45864,
      "componentType": 5126,
      "count": 96,
      "max": [
        65.8987808227539,
        -24.410686492919922,
        130.0001220703125
      ],
      "min": [
        45.898773193359375,
        -84.4106674194336,
        80.00004577636719
      ],
      "type": "VEC3"
    },
    {
      "bufferView": 2,
      "byteOffset": 47016,
      "componentType": 5126,
      "count": 96,
      "max": [
        1.0,
        1.0,
        1.0
      ],
      "min": [
        -1.0,
        -1.0,
        -1.0
      ],
      "type": "VEC3"
    },
    {
      "bufferView": 1,
      "byteOffset": 15288,
      "componentType": 5126,
      "count": 96,
      "max": [
        1.0,
        1.0
      ],
      "min": [
        1.0,
        1.0
      ],
      "type": "VEC2"
    },
    {
      "bufferView": 0,
      "byteOffset": 8496,
      "componentType": 5125,
      "count": 108,
      "type": "SCALAR"
    },
    {
      "bufferView": 2,
      "byteOffset": 48168,
      "componentType": 5126,
      "count": 58,
      "max": [
        65.89884948730469,
        45.589332580566406,
        20.000057220458984
      ],
      "min": [
        55.898841857910156,
        5.589286804199219,
        0.0
      ],
      "type": "VEC3"
    },
    {
      "bufferView": 2,
      "byteOffset": 48864,
      "componentType": 5126,
      "count": 58,
      "max": [
        1.0,
        1.0,
        1.0
      ],
      "min": [
        -1.0,
        -1.0,
        -1.0
      ],
      "type": "VEC3"
    },
    {
      "bufferView": 1,
      "byteOffset": 16056,
      "componentType": 5126,
      "count": 58,
      "max": [
        1.0,
        1.0
      ],
      "min": [
        1.0,
        1.0
      ],
      "type": "VEC2"
    },
    {
      "bufferView": 0,
      "byteOffset": 8928,
      "componentType": 5125,
      "count": 60,
      "type": "SCALAR"
    },
    {
      "bufferView": 3,
      "componentType": 5126,
      "count": 16,
      "max": [
        0.5
      ],
      "min": [
        0.0
      ],
      "type": "SCALAR"
    },
    {
      "bufferView": 4,
      "componentType": 5126,
      "count": 16,
      "max": [
        35.19602966308594,
        120.0,
        39.99990463256836
      ],
      "min": [
        34.9261474609375,
        118.4913330078125,
        33.72548294067383
      ],
      "type": "VEC3"
    },
    {
      "bufferView": 3,
      "byteOffset": 64,
      "componentType": 5126,
      "count": 16,
      "max": [
        0.5
      ],
      "min": [
        0.0
      ],
      "type": "SCALAR"
    },
    {
      "bufferView": 4,
      "byteOffset": 192,
      "componentType": 5126,
      "count": 16,
      "max": [
        9.999987602233887,
        60.000003814697266,
        99.99998474121094
      ],
      "min": [
        9.999985694885254,
        60.0,
        89.99998474121094
      ],
      "type": "VEC3"
    },
    {
      "bufferView": 3,
      "byteOffset": 128,
      "componentType": 5126,
      "count": 16,
      "max": [
        0.5
      ],
      "min": [
        0.0
      ],
      "type": "SCALAR"
    },
    {
      "bufferView": 5,
      "componentType": 5126,
      "count": 16,
      "max": [
        0.0,
        0.0,
        0.0,
        1.0
      ],
      "min": [
        -0.7071067690849304,
        0.0,
        0.0,
        0.7071067690849304
      ],
      "type": "VEC4"
    },
    {
      "bufferView": 3,
      "byteOffset": 192,
      "componentType": 5126,
      "count": 16,
      "max": [
        0.5
      ],
      "min": [
        0.0
      ],
      "type": "SCALAR"
    },
    {
      "bufferView": 4,
      "byteOffset": 384,
      "componentType": 5126,
      "count": 16,
      "max": [
        60.12208938598633,
        60.00010299682617,
        99.9999771118164
      ],
      "min": [
        59.85221862792969,
        58.491432189941406,
        83.72557067871094
      ],
      "type": "VEC3"
    },
    {
      "bufferView": 3,
      "byteOffset": 256,
      "componentType": 5126,
      "count": 16,
      "max": [
        0.5
      ],
      "min": [
        0.0
      ],
      "type": "SCALAR"
    },
    {
      "bufferView": 5,
      "byteOffset": 256,
      "componentType": 5126,
      "count": 16,
      "max": [
        0.0,
        -0.0,
        0.0,
        1.0
      ],
      "min": [
        -0.7071067690849304,
        -0.0,
        0.0,
        0.7071067690849304
      ],
      "type": "VEC4"
    }
  ],
  "animations": [
    {
      "channels": [
        {
          "sampler": 0,
          "target": {
            "node": 4,
            "path": "translation"
          }
        },
        {
          "sampler": 1,
          "target": {
            "node": 8,
            "path": "translation"
          }
        },
        {
          "sampler": 2,
          "target": {
            "node": 11,
            "path": "rotation"
          }
        },
        {
          "sampler": 3,
          "target": {
            "node": 14,
            "path": "translation"
          }
        },
        {
          "sampler": 4,
          "target": {
            "node": 17,
            "path": "rotation"
          }
        }
      ],
      "name": "Take 001",
      "samplers": [
        {
          "input": 24,
          "interpolation": "LINEAR",
          "output": 25
        },
        {
          "input": 26,
          "interpolation": "LINEAR",
          "output": 27
        },
        {
          "input": 28,
          "interpolation": "LINEAR",
          "output": 29
        },
        {
          "input": 30,
          "interpolation": "LINEAR",
          "output": 31
        },
        {
          "input": 32,
          "interpolation": "LINEAR",
          "output": 33
        }
      ]
    }
  ],
  "asset": {
    "extras": {
      "author": "tiunov.se (https://sketchfab.com/tiunov.se)",
      "license": "CC-BY-4.0 (http://creativecommons.org/licenses/by/4.0/)",
      "source": "https://sketchfab.com/3d-models/google-dino-6457715ad6ac438ba7502d43f3e8ae37",
      "title": "Google Dino"
    },
    "generator": "Sketchfab-16.64.0",
    "version": "2.0"
  },
  "bufferViews": [
    {
      "buffer": 0,
      "byteLength": 9168,
      "name": "floatBufferViews",
      "target": 34963
    },
    {
      "buffer": 0,
      "byteLength": 16520,
      "byteOffset": 9168,
      "byteStride": 8,
      "name": "floatBufferViews",
      "target": 34962
    },
    {
      "buffer": 0,
      "byteLength": 49560,
      "byteOffset": 25688,
      "byteStride": 12,
      "name": "floatBufferViews",
      "target": 34962
    },
    {
      "buffer": 0,
      "byteLength": 320,
      "byteOffset": 75248,
      "name": "floatBufferViews"
    },
    {
      "buffer": 0,
      "byteLength": 576,
      "byteOffset": 75568,
      "byteStride": 12,
      "name": "floatBufferViews"
    },
    {
      "buffer": 0,
      "byteLength": 512,
      "byteOffset": 76144,
      "byteStride": 16,
      "name": "floatBufferViews"
    }
  ],
  "buffers": [
    {
      "byteLength": 76656,
      "uri": "scene.bin"
    }
  ],
  "extensionsUsed": [
    "KHR_materials_specular"
  ],
  "materials": [
    {
      "doubleSided": true,
      "extensions": {
        "KHR_materials_specular": {
          "specularColorFactor": [
            1.0,
            1.0,
            1.0
          ],
          "specularFactor": 1.0
        }
      },
      "name": "Material_26",
      "pbrMetallicRoughness": {
        "baseColorFactor": [
          0.11914005042390242,
          0.4530459196144188,
          0.0,
          1.0
        ],
        "metallicFactor": 0.0,
        "roughnessFactor": 0.6
      }
    },
    {
      "doubleSided": true,
      "name": "Material_25",
      "pbrMetallicRoughness": {
        "baseColorFactor": [
          0.07205415710925615,
          0.16460807970228097,
          0.0,
          1.0
        ],
        "metallicFactor": 0.0,
        "roughnessFactor": 0.6
      }
    }
  ],
  "meshes": [
    {
      "name": "Plane001_Material #26_0",
      "primitives": [
        {
          "attributes": {
            "NORMAL": 1,
            "POSITION": 0,
            "TEXCOORD_0": 2
          },
          "indices": 3,
          "material": 0,
          "mode": 4
        }
      ]
    },
    {
      "name": "Plane001_Material #25_0",
      "primitives": [
        {
          "attributes": {
            "NORMAL": 5,
            "POSITION": 4,
            "TEXCOORD_0": 6
          },
          "indices": 7,
          "material": 1,
          "mode": 4
        }
      ]
    },
    {
      "name": "Object006_Material #26_0",
      "primitives": [
        {
          "attributes": {
            "NORMAL": 9,
            "POSITION": 8,
            "TEXCOORD_0": 10
          },
          "indices": 11,
          "material": 0,
          "mode": 4
        }
      ]
    },
    {
      "name": "Object007_Material #26_0",
      "primitives": [
        {
          "attributes": {
            "NORMAL": 13,
            "POSITION": 12,
            "TEXCOORD_0": 14
          },
          "indices": 15,
          "material": 0,
          "mode": 4
        }
      ]
    },
    {
      "name": "Object008_Material #26_0",
      "primitives": [
        {
          "attributes": {
            "NORMAL": 17,
            "POSITION": 16,
            "TEXCOORD_0": 18
          },
          "indices": 19,
          "material": 0,
          "mode": 4
        }
      ]
    },
    {
      "name": "Object009_Material #26_0",
      "primitives": [
        {
          "attributes": {
            "NORMAL": 21,
            "POSITION": 20,
            "TEXCOORD_0": 22
          },
          "indices": 23,
          "material": 0,
          "mode": 4
        }
      ]
    }
  ],
  "nodes": [
    {
      "children": [
        1
      ],
      "matrix": [
        1.0,
        0.0,
        0.0,
        0.0,
        0.0,
        2.220446049250313e-16,
        -1.0,
        0.0,
        0.0,
        1.0,
        2.220446049250313e-16,
        0.0,
        0.0,
        0.0,
        0.0,
        1.0
      ],
      "name": "Sketchfab_model"
    },
    {
      "children": [
        2
      ],
      "matrix": [
        0.02539999969303608,
        0.0,
        0.0,
        0.0,
        0.0,
        0.0,
        0.02539999969303608,
        0.0,
        0.0,
        -0.02539999969303608,
        0.0,
        0.0,
        0.0,
        0.0,
        0.0,
        1.0
      ],
      "name": "17ecd8ed44b64004847a68d1477a2620.fbx"
    },
    {
      "children": [
        3
      ],
      "name": "Object_2"
    },
    {
      "children": [
        4,
        8,
        11,
        14,
        17
      ],
      "name": "RootNode"
    },
    {
      "children": [
        5
      ],
      "name": "Plane001",
      "rotation": [
        2.1855694143368964e-08,
        0.0,
        0.0,
        1.0
      ],
      "translation": [
        34.9261474609375,
        120.0,
        39.99990463256836
      ]
    },
    {
      "children": [
        6,
        7
      ],
      "matrix": [
        1.0,
        0.0,
        0.0,
        0.0,
        0.0,
        6.123233995736766e-17,
        -1.0,
        0.0,
        -0.0,
        1.0,
        6.123233995736766e-17,
        0.0,
        -100.82499694824219,
        -120.0,
        5.589385986328125,
        1.0
      ],
      "name": "Object_5"
    },
    {
      "mesh": 0,
      "name": "Plane001_Material #26_0"
    },
    {
      "mesh": 1,
      "name": "Plane001_Material #25_0"
    },
    {
      "children": [
        9
      ],
      "name": "Object006",
      "rotation": [
        2.1855694143368964e-08,
        0.0,
        0.0,
        1.0
      ],
      "translation": [
        9.999987602233887,
        60.0,
        89.99998474121094
      ]
    },
    {
      "children": [
        10
      ],
      "matrix": [
        1.0,
        0.0,
        0.0,
        0.0,
        0.0,
        6.123233995736766e-17,
        -1.0,
        0.0,
        -0.0,
        1.0,
        6.123233995736766e-17,
        0.0,
        -75.89883422851563,
        -59.99999237060547,
        -44.41069793701172,
        1.0
      ],
      "name": "Object_9"
    },
    {
      "mesh": 2,
      "name": "Object006_Material #26_0"
    },
    {
      "children": [
        12
      ],
      "name": "Object007",
      "rotation": [
        2.1855694143368964e-08,
        0.0,
        0.0,
        1.0
      ],
      "translation": [
        -10.000007629394531,
        20.0,
        40.37933349609375
      ]
    },
    {
      "children": [
        13
      ],
      "matrix": [
        1.0,
        0.0,
        0.0,
        0.0,
        0.0,
        6.123233995736766e-17,
        -1.0,
        0.0,
        -0.0,
        1.0,
        6.123233995736766e-17,
        0.0,
        -55.89884567260742,
        -20.000003814697266,
        5.589288711547852,
        1.0
      ],
      "name": "Object_12"
    },
    {
      "mesh": 3,
      "name": "Object007_Material #26_0"
    },
    {
      "children": [
        15
      ],
      "name": "Object008",
      "rotation": [
        2.1855694143368964e-08,
        0.0,
        0.0,
        1.0
      ],
      "translation": [
        59.85221862792969,
        60.00010299682617,
        99.9999771118164
      ]
    },
    {
      "children": [
        16
      ],
      "matrix": [
        1.0,
        0.0,
        0.0,
        0.0,
        0.0,
        6.123233995736766e-17,
        -1.0,
        0.0,
        -0.0,
        1.0,
        6.123233995736766e-17,
        0.0,
        -45.898643493652344,
        -60.000057220458984,
        -44.41063690185547,
        1.0
      ],
      "name": "Object_15"
    },
    {
      "mesh": 4,
      "name": "Object008_Material #26_0"
    },
    {
      "children": [
        18
      ],
      "name": "Object009",
      "rotation": [
        -0.7071068286895752,
        -0.0,
        0.0,
        0.7071068286895752
      ],
      "translation": [
        79.852294921875,
        20.000011444091797,
        40.00000762939453
      ]
    },
    {
      "children": [
        19
      ],
      "matrix": [
        1.0,
        0.0,
        0.0,
        0.0,
        0.0,
        6.123233995736766e-17,
        -1.0,
        0.0,
        -0.0,
        1.0,
        6.123233995736766e-17,
        0.0,
        -65.89884185791016,
        -20.000057220458984,
        5.589317321777344,
        1.0
      ],
      "name": "Object_18"
    },
    {
      "mesh": 5,
      "name": "Object009_Material #26_0"
    }
  ],
  "scene": 0,
  "scenes": [
    {
      "name": "Sketchfab_Scene",
      "nodes": [
        0
      ]
    }
  ]
}
